# xmcd CD database file
# 
# Track frame offsets:
# 	150
# 	23357
# 	39758
# 	56043
# 	86066
# 	109708
# 	141001
# 	157674
# 	222660
# 
# Disc length: 3268 seconds
# 
# Submitted via: Nero 5.5.8.2
# 
# Revision: 0
# Processed by: cddbd v1.4PL0 Copyright (c) Steve Scherf et al.
#
DISCID=6a0cc209
DTITLE=Matt Thorpe - Blues Frets
DYEAR=1900
DGENRE=
TTITLE0=Blues Won't Leave Me Tonight
TTITLE1=Shuffle In The Nineties
TTITLE2=Low And Then Some
TTITLE3=Certain Blues
TTITLE4=Coloratura
TTITLE5=New Blues
TTITLE6=So Cool
TTITLE7=Certain Blues (11 min version)
TTITLE8=Data Track
EXTD=MP3.com
EXTT0=MP3.com
EXTT1=MP3.com
EXTT2=MP3.com
EXTT3=MP3.com
EXTT4=MP3.com
EXTT5=MP3.com
EXTT6=MP3.com
EXTT7=MP3.com
EXTT8=MP3.com
PLAYORDER=
